<?xml version="1.0" standalone="no"?>
<!DOCTYPE svg PUBLIC "-//W3C//DTD SVG 20010904//EN"
 "http://www.w3.org/TR/2001/REC-SVG-20010904/DTD/svg10.dtd">
<svg version="1.0" xmlns="http://www.w3.org/2000/svg"
 width="860.000000pt" height="523.000000pt" viewBox="0 0 860.000000 523.000000"
 preserveAspectRatio="xMidYMid meet">

<g transform="translate(0.000000,523.000000) scale(0.100000,-0.100000)"
fill="#000000" stroke="none">
<path d="M2281 4773 c-1 -7 17 -53 39 -102 32 -71 44 -115 60 -221 23 -153 23
-150 11 -150 -5 0 -21 23 -34 51 -25 48 -26 49 -38 28 -7 -14 -10 -48 -7 -90
6 -74 2 -85 -19 -67 -7 6 -16 8 -19 5 -5 -5 12 -105 23 -134 3 -7 -2 -13 -11
-13 -11 0 -16 -9 -16 -32 0 -44 -11 -28 -50 74 -18 49 -40 94 -48 100 -13 11
-14 10 -8 -12 25 -87 43 -197 34 -214 -13 -25 -21 -14 -57 74 -35 88 -39 83
-11 -18 22 -80 26 -137 9 -148 -7 -4 -9 -22 -6 -48 4 -25 -2 -80 -16 -143 -23
-108 -32 -119 -69 -86 -10 9 -21 13 -26 9 -4 -4 -9 -64 -11 -132 -1 -68 -7
-124 -12 -124 -5 0 -16 17 -24 38 -13 30 -18 34 -25 21 -15 -27 -56 -179 -76
-282 -10 -53 -23 -96 -29 -94 -24 8 -61 182 -78 369 -5 50 -13 56 -21 17 -6
-33 -50 -99 -66 -99 -5 0 -6 68 -3 158 7 200 -5 478 -20 463 -19 -19 -25 -12
-32 37 -7 51 -64 236 -70 230 -2 -2 3 -44 12 -93 28 -161 6 -383 -71 -707 -18
-81 -37 -151 -41 -157 -12 -20 -25 -1 -25 37 0 20 -4 43 -9 51 -10 15 -15 0
-56 -154 -36 -137 -35 -135 -46 -135 -5 0 -9 9 -9 19 0 11 -4 22 -8 25 -5 3
-28 -73 -51 -169 -24 -96 -46 -173 -51 -170 -4 3 -13 44 -20 92 -6 49 -15 104
-19 123 -7 34 -8 33 -19 -30 -7 -36 -15 -102 -19 -148 -3 -45 -10 -85 -14 -87
-4 -3 -11 21 -14 52 -4 32 -10 72 -14 88 -6 26 -8 21 -14 -33 -4 -35 -9 -68
-12 -72 -3 -5 -17 -2 -32 5 -15 8 -29 13 -31 10 -2 -2 1 -27 8 -57 6 -29 10
-82 8 -118 -3 -57 -5 -65 -23 -65 -18 0 -21 8 -25 80 -3 44 -8 73 -12 65 -4
-8 -12 -82 -18 -165 -6 -82 -16 -167 -21 -187 -10 -40 -29 -52 -29 -18 0 11
-4 20 -10 20 -5 0 -10 -22 -10 -50 0 -57 -12 -64 -35 -20 -9 17 -17 30 -19 30
-2 0 -3 -21 -4 -47 0 -27 -3 -124 -7 -218 -6 -136 -4 -185 9 -244 15 -72 73
-194 90 -191 5 1 13 -4 18 -12 7 -9 8 -5 5 14 -4 27 -4 27 24 12 16 -8 29 -20
29 -27 0 -8 4 -7 10 3 5 8 10 30 10 49 0 29 2 32 15 21 13 -10 15 -9 15 9 0
12 -4 19 -10 16 -5 -3 -7 0 -4 9 3 8 1 31 -6 50 -14 45 -3 236 14 230 8 -3 12
16 13 60 1 36 7 75 14 88 7 13 21 57 31 98 37 144 41 160 49 160 12 0 39 60
39 86 0 13 4 25 9 28 5 3 15 30 21 58 17 72 65 170 90 186 18 11 20 10 20 -13
0 -14 4 -25 9 -25 5 0 7 -45 6 -100 -1 -55 -1 -99 0 -98 2 2 17 54 34 117 47
168 68 201 46 71 -13 -71 -12 -91 1 -78 3 3 21 50 39 105 19 54 34 92 35 84 0
-11 5 -10 20 4 11 10 17 22 14 26 -3 5 1 6 9 3 9 -3 21 11 35 43 12 26 38 79
59 117 31 56 39 65 41 45 2 -13 -11 -68 -27 -122 -40 -128 -58 -230 -42 -235
6 -2 11 -11 12 -20 0 -10 6 -6 13 12 11 24 14 26 18 10 5 -23 -15 -230 -36
-364 -8 -52 -20 -174 -26 -270 -6 -96 -13 -187 -15 -202 -2 -16 0 -28 5 -28
10 0 25 39 21 59 -1 7 3 27 10 43 6 16 13 37 14 46 3 39 18 92 24 92 8 0 31
81 31 108 0 9 6 28 13 42 7 14 24 59 37 100 13 41 39 104 59 140 63 119 79
154 91 213 9 45 17 60 34 67 13 5 26 16 29 24 13 33 27 14 27 -35 0 -62 15
-57 24 8 10 70 17 88 26 73 5 -8 10 -1 15 21 4 19 15 48 25 64 16 26 31 78 35
125 1 8 7 25 13 38 7 12 15 52 19 90 7 77 17 106 26 73 3 -11 1 -21 -5 -21 -5
0 -6 -4 -3 -10 4 -6 11 -5 19 3 8 6 12 15 9 20 -2 4 1 7 7 7 6 0 13 8 17 18 3
9 23 54 44 100 22 45 39 88 39 95 0 6 9 -3 20 -20 11 -18 23 -33 27 -33 5 1
28 41 52 90 24 49 47 87 51 85 17 -10 51 294 51 445 0 34 0 35 12 10 11 -23
12 -22 15 25 2 27 9 56 15 64 7 8 11 42 11 80 -1 42 1 59 7 46 4 -11 8 -41 8
-67 1 -38 6 -52 28 -72 27 -25 28 -30 35 -168 3 -79 7 -155 7 -170 1 -15 8
-33 16 -42 8 -8 15 -31 15 -51 0 -20 5 -67 11 -106 10 -55 15 -67 25 -58 11 9
11 5 5 -18 -23 -76 -53 -137 -90 -184 -48 -61 -55 -89 -16 -63 14 9 37 31 51
48 43 52 8 -10 -42 -75 -28 -36 -60 -100 -89 -175 -42 -107 -49 -140 -76 -329
-16 -115 -29 -246 -29 -290 l0 -80 20 38 c13 24 25 81 36 164 18 152 21 164
34 143 8 -12 10 -11 10 6 0 32 39 154 49 154 16 0 21 -93 17 -305 -2 -115 -1
-214 4 -220 20 -26 27 -234 13 -420 -4 -55 -5 -134 -2 -175 5 -95 3 -345 -4
-385 -9 -47 11 -118 39 -138 l24 -18 0 64 c0 47 5 71 18 88 10 13 22 33 26 43
3 10 9 16 13 13 9 -10 43 12 43 28 0 8 4 15 9 15 4 0 21 27 36 59 17 36 37 62
48 65 19 5 20 11 14 103 -4 54 -3 163 2 243 5 80 8 146 6 148 -1 1 -12 -40
-24 -92 -23 -96 -55 -161 -81 -161 -13 0 -15 26 -14 160 0 131 4 175 22 246
35 136 104 308 204 509 51 102 94 190 97 195 16 40 -204 -275 -265 -380 -18
-31 -30 -44 -32 -34 -4 23 50 231 98 377 22 67 40 128 40 134 0 6 29 71 65
146 36 74 64 137 62 138 -2 2 -31 -37 -65 -86 -56 -81 -110 -129 -125 -113 -3
3 21 59 54 124 32 65 59 122 59 126 0 4 -22 -18 -49 -48 -27 -30 -52 -51 -55
-48 -4 3 -2 37 4 75 12 83 13 124 3 124 -5 0 -18 -16 -31 -35 -12 -19 -28 -35
-36 -35 -28 0 -34 174 -12 325 20 132 22 239 7 358 -14 117 -60 306 -90 368
l-21 44 5 -60 c6 -67 -5 -147 -20 -152 -23 -7 -46 58 -55 154 -5 54 -16 118
-24 143 l-14 45 5 -74 c8 -94 -8 -93 -56 2 -23 46 -37 64 -42 55 -11 -17 -16
-10 -82 102 -73 124 -76 128 -76 113z m127 -670 c16 -30 23 -149 12 -179 -9
-24 -13 -26 -25 -13 -23 23 -47 154 -33 184 13 29 33 32 46 8z m-122 -330 c28
-59 30 -104 9 -136 -20 -31 -45 -114 -45 -152 -1 -39 -15 -16 -26 39 -6 34 -5
38 9 33 15 -6 17 6 16 101 -1 59 -6 126 -10 150 -11 50 -1 79 14 41 5 -13 20
-47 33 -76z m-190 -486 c-16 -47 -26 -57 -26 -26 0 23 28 75 36 67 2 -2 -3
-20 -10 -41z m-606 -342 c-16 -41 -21 -25 -7 20 6 22 13 33 15 24 1 -9 -2 -28
-8 -44z m-150 -180 c0 -8 -4 -15 -10 -15 -5 0 -7 7 -4 15 4 8 8 15 10 15 2 0
4 -7 4 -15z m1340 -1355 c0 -5 -7 -7 -15 -4 -8 4 -15 1 -15 -7 0 -7 -3 -10 -6
-6 -9 9 5 27 22 27 8 0 14 -4 14 -10z"/>
<path d="M2582 3610 c0 -14 2 -19 5 -12 2 6 2 18 0 25 -3 6 -5 1 -5 -13z"/>
<path d="M2535 3513 c-35 -120 -88 -409 -73 -393 10 10 86 196 97 236 8 31 8
56 0 94 -6 28 -8 67 -5 86 11 53 -1 40 -19 -23z"/>
<path d="M3553 3022 c-59 -3 -83 -25 -83 -76 0 -22 12 -40 50 -75 27 -25 54
-59 60 -76 7 -19 11 -115 10 -270 0 -132 0 -262 1 -290 3 -79 -12 -228 -26
-250 -7 -11 -30 -29 -51 -40 -22 -11 -47 -26 -56 -34 -22 -17 -23 -60 -4 -87
13 -18 32 -19 278 -25 359 -8 461 -3 579 32 56 16 76 29 127 79 34 33 68 70
76 83 8 13 17 64 21 123 l7 101 -43 79 c-23 44 -60 95 -82 115 l-41 35 33 57
c45 79 81 174 81 214 0 19 -6 46 -14 61 -8 15 -17 45 -21 65 -5 27 -15 42 -35
52 -15 8 -35 26 -44 40 -29 45 -109 72 -237 80 -118 8 -495 12 -586 7z m562
-56 c125 -4 190 -26 258 -90 31 -29 37 -42 35 -70 -1 -22 5 -42 16 -55 15 -17
16 -25 6 -55 -6 -20 -16 -38 -21 -41 -5 -4 -9 -15 -9 -26 0 -53 -103 -169
-150 -169 -9 0 -25 -6 -35 -14 -18 -13 -17 -14 16 -20 102 -21 167 -67 216
-156 37 -68 38 -71 33 -152 -5 -76 -8 -87 -39 -125 -47 -59 -96 -90 -177 -113
-72 -19 -207 -36 -259 -32 -16 1 -135 4 -263 6 -128 2 -235 6 -238 9 -3 3 11
15 33 26 21 11 52 31 68 45 30 24 30 24 31 138 1 62 6 125 13 141 8 20 8 41 0
78 -8 35 -8 58 0 81 7 18 7 35 2 42 -7 9 -7 182 0 271 6 68 -26 195 -49 195
-4 0 -23 14 -42 31 l-35 31 40 -23 c22 -12 51 -32 64 -43 13 -12 21 -16 18
-10 -4 7 9 26 28 43 33 28 42 31 105 31 43 0 70 -4 70 -11 0 -5 5 -7 10 -4 6
3 10 -4 10 -15 0 -15 5 -20 14 -17 7 3 17 2 22 -3 5 -4 23 8 40 26 l31 34 -23
6 c-12 3 -28 3 -35 -1 -15 -10 -214 -7 -248 3 -27 7 235 20 299 14 19 -1 85
-4 145 -6z m-500 -7 c-3 -4 -21 -7 -40 -6 -19 1 -29 4 -23 8 15 10 69 8 63 -2z"/>
<path d="M4010 2949 c-14 -4 -19 -7 -11 -8 8 -1 19 -8 26 -18 11 -15 14 -15
34 -1 12 9 19 18 14 20 -21 12 -40 14 -63 7z"/>
<path d="M4118 2933 c7 -3 16 -2 19 1 4 3 -2 6 -13 5 -11 0 -14 -3 -6 -6z"/>
<path d="M4341 2868 c13 -21 25 -33 27 -28 2 5 -9 22 -23 37 l-27 28 23 -37z"/>
<path d="M3870 2855 c-7 -9 -11 -17 -9 -20 3 -2 10 5 17 15 14 24 10 26 -8 5z"/>
<path d="M3903 2825 c-3 -9 -5 -50 -4 -93 1 -42 1 -115 0 -161 l-1 -84 93 6
c82 6 96 10 121 34 15 14 36 52 46 83 15 48 16 62 6 91 -7 19 -13 44 -13 55
-2 36 -105 84 -181 84 -45 0 -62 -4 -67 -15z m169 -84 c28 -25 33 -36 32 -71
-2 -72 -69 -135 -120 -111 -23 10 -24 16 -24 95 0 46 3 91 6 100 10 27 69 20
106 -13z"/>
<path d="M3899 2341 c-11 -27 -4 -324 7 -343 10 -16 174 -4 211 15 40 21 65
54 83 107 38 115 -69 231 -223 243 -67 5 -69 4 -78 -22z m174 -71 c54 -34 83
-84 73 -125 -16 -63 -119 -121 -173 -96 -22 10 -23 15 -23 115 0 82 3 108 16
120 23 24 55 19 107 -14z"/>
<path d="M4499 3020 c-22 -5 -24 -12 -27 -64 l-3 -58 56 -51 56 -52 5 -130 c5
-159 6 -205 4 -367 -1 -71 1 -132 4 -137 3 -5 13 -41 21 -81 9 -41 25 -84 38
-100 12 -15 30 -41 39 -58 11 -20 37 -42 75 -60 32 -16 81 -41 108 -56 48 -25
58 -26 210 -27 154 -1 237 10 320 41 37 14 158 108 172 133 25 43 64 183 74
262 5 44 10 196 10 339 l0 258 29 29 c32 33 59 36 96 13 50 -34 51 -42 48
-431 -1 -199 -5 -376 -9 -392 -4 -19 -22 -42 -48 -62 -57 -44 -67 -58 -67 -94
0 -61 15 -68 151 -76 119 -7 320 -3 385 7 17 2 41 14 53 25 32 30 20 72 -40
136 -32 33 -49 61 -49 77 0 57 54 43 82 -22 11 -26 43 -70 72 -98 28 -28 65
-67 81 -87 l30 -35 470 2 470 1 12 27 c19 38 2 73 -45 97 -22 11 -51 34 -65
51 l-26 31 2 177 c2 164 3 177 21 180 20 4 99 -66 121 -109 8 -15 34 -50 59
-79 25 -29 54 -72 65 -94 11 -26 36 -53 60 -69 29 -20 51 -46 75 -95 37 -72
75 -115 118 -131 38 -14 209 -2 231 17 10 9 17 29 17 50 0 19 5 52 12 74 9 31
9 50 -3 91 -11 41 -13 119 -11 357 1 168 5 332 8 365 6 57 9 62 65 115 67 63
82 102 52 138 -18 21 -24 22 -271 24 -248 3 -254 3 -271 -18 -15 -18 -18 -42
-12 -90 0 -6 26 -28 56 -48 31 -20 60 -48 65 -62 13 -34 13 -320 0 -345 -15
-27 -42 -11 -77 44 -14 23 -45 61 -67 84 -67 68 -122 135 -147 178 -12 22 -42
65 -67 95 -24 30 -55 74 -69 97 -33 56 -59 63 -259 63 -143 0 -163 -2 -177
-18 -32 -36 -22 -77 36 -138 28 -30 55 -61 59 -68 8 -14 11 -359 5 -536 -2
-58 -4 -137 -5 -177 -2 -61 -6 -76 -28 -102 -33 -40 -58 -39 -142 3 -62 32
-138 99 -188 167 -10 14 -38 50 -61 78 -24 29 -43 61 -43 72 0 13 27 36 83 73
46 29 93 65 104 79 31 40 66 199 60 274 -11 145 -139 264 -304 282 -69 8 -371
15 -583 13 -153 -1 -575 -1 -623 0 -47 1 -70 -20 -69 -62 1 -39 13 -53 79 -96
34 -22 55 -43 60 -61 5 -15 8 -170 7 -343 -1 -296 -2 -318 -22 -362 -25 -56
-58 -80 -120 -86 -77 -7 -168 46 -209 121 -16 29 -18 62 -15 352 4 353 3 344
71 409 22 22 31 39 31 63 0 54 -24 62 -181 64 -74 0 -150 -2 -169 -5 -19 -4
-71 -3 -116 2 -44 4 -91 5 -105 2z m3496 -55 c164 -3 180 -10 115 -52 -66 -42
-90 -65 -90 -86 0 -12 -6 -51 -14 -87 -8 -40 -11 -89 -7 -128 5 -43 3 -73 -6
-94 -10 -22 -11 -40 -4 -58 11 -29 14 -80 13 -170 -4 -195 -1 -265 14 -288 14
-21 14 -25 -1 -42 -12 -14 -15 -29 -9 -68 3 -27 2 -52 -3 -55 -5 -3 -29 -1
-52 5 -33 8 -52 8 -78 -1 -48 -18 -74 2 -117 91 -40 83 -70 119 -115 138 -22
9 -31 19 -31 35 0 13 -21 51 -47 85 -27 34 -57 77 -68 96 -11 18 -39 43 -65
56 -37 19 -48 31 -63 73 -10 28 -36 68 -57 90 -22 22 -48 51 -59 65 -29 37
-36 18 -21 -60 10 -55 11 -78 1 -109 -8 -28 -8 -58 -1 -107 13 -92 13 -256 -1
-291 -10 -26 -7 -31 33 -66 24 -22 57 -47 73 -58 l30 -19 -65 -1 c-120 -2
-364 2 -368 6 -2 2 24 30 58 62 61 56 62 58 55 98 -9 48 -9 79 0 161 5 38 3
69 -4 81 -7 14 -7 31 -1 53 11 40 16 407 5 470 -8 51 -44 99 -92 124 -37 18
-49 34 -37 46 5 5 72 5 149 1 77 -5 150 -5 162 0 29 11 40 -1 76 -77 16 -33
41 -69 57 -79 15 -10 36 -36 45 -58 10 -21 38 -60 62 -86 25 -25 50 -61 55
-79 6 -22 21 -41 43 -53 20 -12 43 -39 56 -65 12 -25 30 -51 40 -57 11 -7 19
-16 19 -21 0 -18 52 -85 70 -91 10 -3 25 -21 35 -40 9 -19 20 -35 24 -35 5 0
9 71 9 158 0 86 1 162 2 167 2 13 1 107 -4 209 -4 93 -18 117 -91 155 -67 35
-66 56 2 56 28 0 55 4 59 8 5 4 20 5 34 1 14 -4 93 -8 175 -9z m-3223 -9 c-3
-5 -61 -6 -133 -3 l-129 6 49 -42 c27 -23 60 -49 73 -58 22 -16 23 -23 22
-113 l-1 -96 22 30 c13 17 44 44 69 61 74 46 166 123 166 137 0 8 10 26 22 40
15 19 19 21 14 8 -7 -20 -7 -20 15 0 l21 19 -48 6 c-27 3 -63 4 -80 1 -18 -2
-40 0 -50 6 -14 8 12 9 90 7 59 -2 111 -6 114 -9 2 -3 -8 -19 -24 -35 -76 -77
-75 -73 -69 -203 2 -68 0 -129 -6 -145 -5 -14 -7 -34 -3 -42 4 -9 8 -101 8
-206 1 -201 4 -214 54 -281 12 -18 37 -37 55 -44 18 -7 47 -19 65 -27 19 -8
42 -11 55 -7 12 4 55 8 96 8 71 1 74 2 102 36 16 19 29 41 29 50 0 9 6 24 14
35 14 21 15 153 1 187 -3 9 0 30 9 46 8 16 12 33 8 36 -4 4 -8 82 -9 174 -1
92 -2 174 -3 182 -1 8 2 40 5 70 l7 55 -45 38 c-25 20 -52 37 -60 37 -8 0 -25
9 -38 19 -22 18 -22 20 -6 26 9 4 70 2 135 -5 72 -7 160 -9 230 -5 61 4 112 5
112 3 0 -2 -29 -28 -65 -58 l-64 -53 3 -120 c2 -66 0 -133 -5 -150 -5 -17 -4
-37 1 -48 6 -11 7 -27 1 -42 -6 -14 -6 -58 -2 -101 5 -60 4 -82 -7 -97 -10
-14 -12 -34 -8 -63 4 -25 2 -55 -5 -72 -6 -16 -16 -49 -21 -74 -5 -25 -11 -57
-14 -72 -4 -14 -22 -39 -43 -55 -50 -40 -170 -109 -206 -118 -61 -15 -168 -23
-199 -14 -17 5 -60 10 -96 11 -63 1 -140 22 -140 38 0 4 -27 20 -60 36 -44 21
-62 36 -66 54 -4 14 -19 39 -34 55 -42 47 -61 177 -59 395 1 96 -1 194 -5 217
-5 25 -4 55 2 73 18 49 0 129 -34 158 -71 60 -104 94 -99 102 3 4 65 7 139 7
76 -1 132 -6 128 -11z m1673 -5 c40 -7 44 -9 20 -11 -16 -2 -38 -4 -47 -4 -13
1 -15 -3 -7 -12 6 -7 8 -18 4 -24 -3 -5 1 -10 9 -10 19 0 19 -1 6 -35 -9 -23
-14 -26 -43 -21 l-32 6 29 -12 c27 -10 32 -8 53 18 12 16 23 25 23 20 0 -5 9
-1 20 9 17 16 20 16 26 2 3 -8 1 -30 -4 -49 -5 -18 -8 -49 -7 -68 3 -41 -13
-82 -28 -73 -6 3 -7 1 -3 -5 7 -12 -14 -87 -42 -152 -8 -19 -17 -47 -18 -62
-3 -24 -1 -27 21 -26 14 1 25 6 25 10 0 4 6 8 13 8 7 0 25 11 40 25 15 14 27
23 27 19 0 -3 15 9 34 28 18 18 44 42 57 54 13 11 30 30 38 42 8 11 18 19 22
16 12 -7 28 59 18 70 -5 6 -9 22 -9 37 0 15 -7 32 -15 39 -8 7 -15 21 -15 32
0 11 -9 22 -20 25 -11 3 -20 9 -20 14 0 18 -45 49 -71 49 -14 0 -32 7 -39 15
-15 18 -16 18 42 0 120 -36 190 -176 152 -305 -8 -30 -18 -66 -21 -80 -3 -14
-14 -35 -23 -48 -22 -27 -115 -92 -133 -92 -7 0 -28 -11 -47 -25 -19 -14 -44
-25 -56 -25 -36 0 -37 -17 -4 -41 16 -13 30 -31 30 -41 0 -9 13 -27 29 -39 16
-12 32 -32 35 -45 4 -13 20 -31 36 -39 17 -9 30 -19 30 -23 0 -5 34 -44 75
-87 56 -58 94 -88 147 -114 39 -20 70 -40 69 -46 0 -6 -59 -11 -149 -12 -81
-1 -159 -3 -172 -4 -46 -4 -59 1 -74 29 -8 15 -36 50 -64 77 -27 28 -57 68
-67 90 -17 36 -33 57 -122 150 -15 17 -32 38 -38 49 -27 51 -48 -7 -34 -92 5
-31 9 -79 9 -106 0 -54 22 -98 77 -157 24 -25 31 -39 23 -44 -6 -4 -57 -4
-113 0 -62 4 -112 3 -128 -3 -20 -8 -30 -7 -40 4 -12 12 -29 12 -98 4 -123
-16 -149 -2 -87 45 19 15 47 42 62 62 l27 35 3 418 3 418 -59 53 c-33 29 -60
57 -60 61 0 12 34 -3 48 -21 7 -9 16 -16 21 -16 14 0 69 -71 74 -95 2 -14 3
-8 2 13 -2 20 1 37 6 37 5 0 9 -7 9 -15 0 -9 10 -15 26 -15 18 0 40 16 74 53
l49 52 1 -42 c0 -24 4 -43 8 -43 4 0 26 18 47 40 21 22 48 41 60 41 11 1 4 4
-15 8 -40 8 -196 5 -210 -4 -5 -3 -28 -1 -52 4 -24 6 -54 12 -68 15 -14 2 103
2 260 -1 157 -2 308 -8 335 -12z m-535 -51 c8 13 10 13 10 -1 0 -9 -3 -18 -6
-22 -9 -9 -44 16 -44 32 0 11 4 9 15 -5 13 -16 16 -17 25 -4z"/>
<path d="M6945 2944 c25 -19 83 -50 72 -38 -5 5 7 14 25 20 l33 11 -35 6 c-19
3 -53 8 -75 11 -38 5 -39 4 -20 -10z"/>
<path d="M8067 2952 c-56 -3 -58 -4 -73 -40 -8 -20 -21 -65 -28 -99 -12 -54
-12 -63 1 -63 8 0 12 -4 8 -9 -3 -5 -1 -12 4 -15 9 -6 21 40 21 85 0 21 12 40
41 69 23 22 47 40 54 40 12 0 42 28 34 33 -2 1 -30 1 -62 -1z"/>
<path d="M7104 2935 c16 -9 37 -13 45 -9 14 5 13 7 -4 14 -11 5 -31 9 -45 9
-25 1 -25 1 4 -14z"/>
<path d="M7900 2095 c-18 -48 -89 -56 -153 -16 -31 19 -34 19 -45 3 -7 -9 -10
-11 -6 -3 5 9 3 12 -4 7 -15 -9 -16 -9 9 -37 12 -13 29 -33 38 -44 22 -27 85
-67 151 -94 30 -13 66 -30 79 -38 l24 -15 -6 42 c-6 50 -1 70 21 70 13 0 13 2
-1 18 -10 10 -17 32 -17 48 0 32 -26 78 -40 69 -5 -3 -11 -1 -15 5 -11 17 -25
11 -35 -15z"/>
<path d="M4881 2264 c0 -11 3 -14 6 -6 3 7 2 16 -1 19 -3 4 -6 -2 -5 -13z"/>
<path d="M4882 2200 c0 -14 2 -19 5 -12 2 6 2 18 0 25 -3 6 -5 1 -5 -13z"/>
<path d="M4891 2154 c0 -11 3 -14 6 -6 3 7 2 16 -1 19 -3 4 -6 -2 -5 -13z"/>
<path d="M6144 2814 c-4 -14 -2 -36 4 -50 8 -16 8 -32 2 -50 -6 -15 -7 -32 -1
-42 5 -9 5 -24 -1 -38 -7 -16 -7 -32 1 -54 6 -18 8 -43 5 -56 -3 -13 -3 -35 0
-49 6 -22 11 -25 56 -25 27 0 59 4 72 9 13 5 34 12 48 15 48 11 81 48 97 111
17 68 18 132 1 153 -7 8 -17 23 -23 35 -5 11 -17 23 -25 27 -65 32 -98 40
-160 40 -66 0 -70 -1 -76 -26z m171 -48 c52 -22 69 -56 62 -124 -5 -46 -11
-62 -35 -83 -34 -31 -97 -46 -118 -28 -10 8 -14 37 -14 112 0 134 20 158 105
123z"/>
<path d="M6386 2372 c-3 -5 8 -6 25 -4 16 2 29 6 29 8 0 8 -49 4 -54 -4z"/>
<path d="M1535 2566 c-29 -70 -54 -216 -45 -261 1 -5 2 -13 1 -17 -2 -11 17
-10 24 1 12 20 45 230 38 247 -4 12 -3 15 5 10 8 -5 12 1 12 18 0 40 -19 41
-35 2z m-14 -202 c-9 -28 -9 -29 -10 -3 -1 14 2 29 6 32 11 12 13 2 4 -29z"/>
<path d="M1922 2555 c0 -16 2 -22 5 -12 2 9 2 23 0 30 -3 6 -5 -1 -5 -18z"/>
<path d="M1907 2460 c-5 -30 -19 -122 -33 -205 -48 -288 -56 -365 -51 -495 4
-121 11 -160 26 -160 11 0 31 256 41 500 4 113 13 244 20 292 6 48 10 95 8
105 -2 10 -7 -7 -11 -37z"/>
<path d="M1494 2248 l-19 -23 23 19 c21 18 27 26 19 26 -2 0 -12 -10 -23 -22z"/>
<path d="M1073 2095 c0 -27 2 -38 4 -22 2 15 2 37 0 50 -2 12 -4 0 -4 -28z"/>
<path d="M2391 1965 c1 -92 17 -126 18 -40 0 39 -4 77 -9 85 -7 11 -9 -3 -9
-45z"/>
<path d="M4281 1707 c-34 -17 -40 -48 -38 -198 2 -124 3 -132 26 -150 33 -27
147 -27 201 1 47 24 64 25 99 4 25 -15 30 -15 59 0 39 20 57 20 92 0 26 -16
29 -16 51 0 31 21 61 20 101 -4 42 -25 88 -25 135 0 46 24 95 26 128 4 23 -15
27 -15 50 0 31 20 54 20 83 0 21 -14 26 -14 65 5 55 27 63 26 103 -4 42 -32
73 -38 149 -28 56 8 61 11 80 46 11 20 26 37 32 37 7 0 22 -18 33 -40 19 -38
23 -40 64 -40 55 0 86 33 86 89 0 22 15 65 40 114 42 81 49 121 27 151 -12 17
-35 18 -258 19 -194 2 -251 -1 -276 -13 -29 -13 -38 -12 -83 4 -55 20 -74 18
-167 -14 l-61 -22 -57 26 c-49 22 -71 26 -152 26 -82 0 -104 -4 -155 -27 l-60
-26 -54 26 c-51 25 -63 27 -187 27 -85 0 -141 -5 -156 -13z m209 -72 c0 -23
-4 -24 -62 -27 -57 -3 -63 -5 -66 -25 -3 -22 0 -23 57 -23 58 0 61 -1 61 -25
0 -24 -3 -25 -60 -25 l-60 0 0 -30 0 -30 70 0 c68 0 70 -1 70 -25 0 -25 -1
-25 -79 -25 -44 0 -86 3 -95 6 -13 5 -16 26 -16 130 l0 124 90 0 c89 0 90 0
90 -25z m181 -50 c24 -41 47 -75 51 -75 4 0 8 34 8 75 0 73 1 75 25 75 l25 0
0 -131 0 -130 -27 3 c-23 2 -37 17 -73 78 l-45 75 -5 -75 c-5 -72 -6 -75 -30
-75 l-25 0 -3 114 c-1 63 0 121 2 128 3 7 16 13 30 13 20 0 32 -14 67 -75z
m381 60 c0 -8 1 -21 2 -27 1 -9 -18 -13 -64 -13 -60 0 -65 -2 -68 -22 -3 -22
0 -23 57 -23 58 0 61 -1 61 -25 0 -22 -4 -24 -57 -27 -55 -3 -58 -5 -61 -30
-3 -27 -3 -27 65 -30 62 -3 68 -5 71 -26 3 -23 3 -23 -95 -20 l-98 3 -3 128
-3 127 96 0 c77 0 95 -3 97 -15z m255 -6 c28 -24 35 -59 18 -92 -9 -18 -11
-34 -6 -41 5 -6 12 -35 16 -63 6 -44 4 -53 -8 -53 -34 0 -47 13 -47 44 0 46
-20 68 -55 64 -28 -3 -30 -6 -33 -50 -3 -46 -5 -48 -33 -48 l-29 0 0 123 c0
68 3 127 8 131 11 12 151 -1 169 -15z m282 7 c27 -14 55 -59 44 -70 -13 -13
-37 -5 -59 19 -28 30 -53 32 -88 4 -65 -51 2 -187 74 -149 27 14 26 38 -2 42
-15 2 -24 11 -26 26 -3 21 0 22 53 22 l56 0 -3 -67 -3 -68 -50 -3 c-120 -8
-151 6 -174 77 -18 57 -7 107 34 148 27 27 41 33 74 33 23 0 54 -6 70 -14z
m172 -31 c18 -25 34 -45 36 -45 2 0 13 20 24 45 17 39 24 45 50 45 17 0 29 -3
27 -7 -2 -5 -17 -35 -34 -68 -17 -33 -37 -88 -45 -123 -11 -54 -16 -62 -34
-60 -16 2 -22 15 -32 73 -9 48 -24 85 -48 122 -19 29 -35 55 -35 58 0 3 13 5
29 5 24 0 36 -9 62 -45z"/>
<path d="M5192 1578 c4 -39 35 -49 74 -23 20 13 22 19 14 35 -8 15 -21 20 -51
20 -39 0 -40 -1 -37 -32z"/>
<path d="M6056 1699 c-26 -20 -26 -22 -26 -153 0 -129 1 -133 25 -156 21 -20
41 -26 107 -31 72 -7 85 -5 106 12 33 26 51 24 84 -8 l27 -26 42 28 c41 26 44
27 95 15 33 -8 85 -11 140 -7 52 3 97 1 111 -6 18 -8 32 -6 63 8 37 17 43 17
82 2 24 -9 56 -13 71 -10 15 3 47 0 71 -7 35 -10 51 -9 79 1 31 11 41 10 76
-6 35 -15 45 -16 71 -5 17 7 39 24 50 37 21 27 16 55 -20 101 -27 33 -25 67 5
106 28 36 32 73 12 100 -16 22 -47 23 -109 6 -40 -12 -52 -12 -88 3 -37 14
-46 14 -78 2 -21 -7 -68 -16 -107 -19 -56 -5 -80 -2 -122 14 -74 28 -309 23
-429 -10 l-81 -22 -51 26 c-68 34 -166 37 -206 5z m194 -57 c63 -31 77 -142
27 -206 -26 -32 -93 -49 -157 -39 l-35 5 3 129 3 129 62 0 c39 0 75 -7 97 -18z
m284 7 c13 -7 30 -25 37 -42 11 -25 10 -34 -4 -60 -11 -18 -14 -34 -9 -41 5
-6 12 -32 14 -58 5 -47 5 -48 -23 -48 -25 0 -29 5 -35 38 -9 49 -20 62 -55 62
-28 0 -29 -2 -29 -49 0 -45 -2 -49 -27 -54 -16 -3 -30 -4 -33 -2 -3 2 -4 62
-2 134 l3 131 69 0 c38 0 80 -5 94 -11z m166 -1 c0 -5 0 -60 0 -123 0 -114 0
-115 -23 -115 -13 0 -24 6 -24 13 0 6 -3 52 -7 100 -8 112 -2 139 31 135 13
-2 23 -6 23 -10z m170 -50 c51 -101 54 -102 60 -17 5 71 6 74 30 74 l25 0 1
-123 c0 -122 0 -124 -24 -133 -29 -11 -47 1 -56 35 -8 33 -56 116 -67 116 -7
0 -13 -91 -8 -127 1 -10 -30 -25 -41 -18 -6 4 -10 59 -10 131 l0 124 29 0 c26
0 33 -7 61 -62z m248 15 c2 -24 7 -43 11 -43 5 0 25 20 45 45 37 44 65 55 94
36 10 -6 2 -18 -32 -46 -25 -20 -46 -45 -46 -54 0 -9 12 -34 27 -56 15 -22 19
-34 10 -26 -15 12 -17 11 -17 -11 0 -13 5 -29 12 -36 7 -7 8 -12 2 -12 -6 0
-25 20 -43 46 -18 25 -38 43 -44 41 -7 -2 -14 -23 -17 -48 -4 -39 -8 -44 -32
-47 l-28 -3 0 131 0 131 28 -3 c24 -3 27 -7 30 -45z m-498 -104 c0 -20 -15
-26 -25 -9 -9 15 3 43 15 35 5 -3 10 -15 10 -26z"/>
<path d="M6154 1596 c-3 -8 -6 -43 -7 -78 -2 -62 -1 -63 25 -66 63 -7 105 91
58 138 -23 23 -68 27 -76 6z"/>
<path d="M6432 1578 c2 -28 8 -34 31 -36 33 -4 57 13 57 38 0 21 -19 30 -61
30 -28 0 -30 -2 -27 -32z"/>
<path d="M3265 1697 c-11 -7 -30 -22 -43 -34 -15 -16 -34 -23 -58 -23 -28 0
-37 -5 -41 -21 -5 -16 -12 -20 -39 -17 -43 3 -54 -8 -25 -28 31 -22 25 -66 -9
-74 -20 -5 -25 -12 -23 -34 1 -18 -2 -26 -10 -23 -7 2 -19 1 -28 -4 -13 -7
-15 -16 -9 -51 5 -23 5 -51 0 -62 -4 -12 -4 -33 1 -48 5 -20 3 -32 -7 -43 -9
-9 -13 -23 -9 -35 4 -12 2 -20 -5 -20 -6 0 -19 -7 -27 -16 -9 -8 -24 -13 -34
-11 -11 3 -19 1 -19 -4 0 -4 -7 -6 -15 -3 -8 3 -17 0 -19 -7 -2 -8 -9 -32 -15
-54 -15 -59 -35 -83 -54 -67 -9 7 -18 9 -21 4 -3 -5 -21 -8 -40 -7 -21 2 -41
-3 -53 -13 -10 -10 -28 -16 -41 -14 -29 4 -72 -23 -72 -46 -1 -15 -2 -15 -15
2 -10 14 -18 16 -27 9 -7 -6 -26 -13 -42 -17 -25 -6 -28 -5 -24 12 5 17 2 19
-21 12 -14 -4 -34 -11 -43 -15 -12 -5 -18 -2 -19 6 -1 8 -4 3 -8 -10 -11 -39
-35 -40 -29 -2 3 18 1 34 -4 37 -4 3 -8 12 -8 21 0 14 3 14 20 -2 24 -21 27
-14 4 9 -14 15 -18 15 -45 -1 -25 -15 -29 -23 -29 -64 0 -26 -3 -54 -6 -62 -3
-10 2 -18 15 -22 15 -5 18 -11 12 -27 -4 -12 -17 -25 -29 -29 -17 -6 -20 -5
-15 8 4 11 2 14 -8 11 -8 -3 -14 -14 -14 -26 0 -11 -4 -24 -8 -28 -4 -4 -7
-17 -7 -29 0 -31 -11 -37 -32 -18 -15 14 -21 15 -27 4 -7 -10 -13 -11 -31 -1
-18 10 -35 10 -79 0 -75 -16 -85 -22 -89 -54 -4 -35 -29 -33 -37 3 -4 17 -21
41 -41 56 -19 14 -43 43 -54 64 -17 35 -46 68 -108 124 -25 23 -68 19 -65 -6
1 -16 -5 -18 -49 -13 -28 2 -54 10 -58 16 -6 9 -20 10 -59 1 -72 -15 -98 -14
-119 7 -44 43 -103 45 -117 3 -3 -12 -10 -21 -15 -21 -5 0 -7 7 -4 15 4 9 0
15 -10 15 -9 0 -16 5 -16 10 0 13 -37 13 -45 -1 -4 -6 3 -17 14 -26 13 -9 21
-23 19 -36 -3 -24 -37 -32 -45 -11 -3 8 -10 14 -15 14 -14 0 -1 -50 22 -81 10
-15 16 -29 13 -33 -15 -15 -64 -4 -93 21 -27 22 -31 31 -27 59 5 26 2 34 -13
39 -27 9 -90 100 -90 131 0 17 -4 23 -12 18 -10 -6 -10 -4 0 8 11 14 7 23 -30
66 -29 33 -54 52 -75 56 -30 6 -33 10 -33 46 0 50 19 93 38 85 7 -3 27 7 43
22 32 30 36 43 16 43 -8 0 -24 11 -37 25 -13 14 -29 25 -36 25 -6 0 -17 7 -24
15 -7 8 -22 15 -33 15 -11 0 -18 3 -14 6 6 7 -45 54 -59 54 -4 0 -40 33 -79
73 -77 81 -120 105 -154 88 -19 -11 -19 -13 -4 -64 17 -59 74 -143 103 -152
26 -8 68 -58 119 -143 41 -68 43 -76 37 -123 -8 -60 14 -98 75 -129 42 -22 59
-46 59 -82 0 -32 51 -111 108 -171 41 -42 121 -90 163 -98 24 -5 77 12 91 28
7 9 31 27 53 41 36 24 49 26 133 24 56 -1 103 -7 120 -15 43 -23 143 -56 188
-63 32 -5 54 -19 110 -73 38 -37 82 -82 97 -100 36 -39 50 -36 132 30 48 39
80 55 160 80 85 27 105 38 137 73 21 22 38 44 38 48 0 5 5 8 11 8 6 0 25 6 42
14 28 12 108 34 275 76 24 6 60 26 80 43 20 18 49 41 64 50 15 9 34 31 43 49
9 18 34 47 56 63 22 17 45 35 52 40 6 6 29 24 50 39 58 44 71 77 72 177 0 84
1 88 40 145 21 33 65 87 97 121 58 62 66 77 48 88 -6 4 -8 11 -5 16 7 11 6 10
-20 -4z"/>
<path d="M2356 1669 c-3 -13 -7 -42 -8 -64 -2 -32 -7 -41 -24 -43 -18 -3 -25
6 -39 42 -19 50 -29 56 -45 27 -15 -30 5 -116 46 -198 20 -40 40 -73 44 -73
16 0 83 -78 97 -112 16 -41 38 -52 30 -15 -3 12 -11 63 -17 112 -25 188 -51
320 -65 334 -12 12 -15 11 -19 -10z"/>
<path d="M2905 1489 c-4 -6 -4 -13 -1 -16 3 -4 6 0 6 8 0 11 2 11 10 -1 8 -13
10 -12 10 3 0 19 -15 23 -25 6z"/>
<path d="M887 1460 c-13 -16 -14 -25 -6 -47 l10 -27 19 30 c18 26 20 27 20 8
0 -12 6 -37 14 -55 l14 -34 11 28 c15 39 14 107 -1 108 -7 0 -24 3 -38 5 -17
3 -31 -3 -43 -16z"/>
<path d="M2805 1403 c-11 -2 -25 -14 -30 -26 -7 -16 -21 -23 -50 -27 l-40 -5
2 -44 c3 -55 48 -109 80 -96 10 5 22 7 26 6 5 -1 6 3 2 9 -3 5 -1 10 5 10 6 0
9 4 6 9 -3 5 5 33 18 62 14 30 28 66 31 82 8 28 2 31 -50 20z"/>
<path d="M1575 930 c3 -5 10 -10 16 -10 5 0 9 5 9 10 0 6 -7 10 -16 10 -8 0
-12 -4 -9 -10z"/>
</g>
</svg>
