<?xml version="1.0" standalone="no"?>
<!DOCTYPE svg PUBLIC "-//W3C//DTD SVG 20010904//EN"
 "http://www.w3.org/TR/2001/REC-SVG-20010904/DTD/svg10.dtd">
<svg version="1.0" xmlns="http://www.w3.org/2000/svg"
 width="225.000000pt" height="225.000000pt" viewBox="0 0 225.000000 225.000000"
 preserveAspectRatio="xMidYMid meet">

<g transform="translate(0.000000,225.000000) scale(0.100000,-0.100000)"
fill="#000000" stroke="none">
<path d="M1356 1587 c-22 -18 -50 -32 -63 -32 -24 -1 -30 9 -13 20 6 3 10 9
10 13 0 4 -25 -16 -56 -45 -31 -29 -62 -53 -70 -53 -20 0 -59 -48 -59 -73 0
-15 -11 -27 -33 -39 -19 -9 -40 -24 -47 -35 -12 -16 -11 -21 8 -41 24 -26 18
-34 -34 -51 -20 -7 -45 -21 -55 -32 -17 -19 -17 -20 2 -13 16 6 15 2 -7 -22
-14 -16 -29 -38 -33 -48 -6 -18 -5 -19 11 -4 21 18 82 40 93 33 4 -2 15 2 25
9 20 15 39 116 21 116 -14 0 35 50 66 66 57 30 62 15 13 -41 -19 -22 -39 -45
-45 -52 -7 -8 -6 -14 1 -18 5 -4 32 14 59 39 41 38 56 46 88 46 45 0 56 8 41
27 -9 11 -2 13 41 13 53 0 105 22 115 48 4 12 -5 14 -50 10 -30 -3 -55 -1 -55
4 0 4 8 8 19 8 10 0 43 11 72 24 l54 24 -37 18 c-30 14 -42 15 -63 6 -29 -13
-33 -5 -7 14 16 12 15 13 -5 14 -12 0 -29 -7 -37 -16 -9 -8 -22 -14 -29 -11
-6 3 13 16 43 30 30 14 46 26 36 26 -18 1 -18 3 4 26 32 34 23 31 -24 -8z
m-72 -52 c-10 -8 -26 -14 -34 -14 -9 0 -4 6 10 14 33 19 49 19 24 0z m0 -41
c13 -5 15 -15 10 -43 -8 -44 -27 -61 -73 -61 -39 0 -32 16 9 22 17 2 25 9 24
21 -1 9 3 17 8 17 6 0 8 11 6 25 -6 28 -6 27 16 19z m-99 -50 c-10 -7 -22 -11
-28 -7 -5 3 1 14 14 24 16 12 25 14 28 7 2 -6 -4 -17 -14 -24z m-155 -258 c0
-3 -4 -8 -10 -11 -5 -3 -10 -1 -10 4 0 6 5 11 10 11 6 0 10 -2 10 -4z"/>
<path d="M1442 1570 c-48 -26 -48 -25 2 -50 26 -12 46 -26 46 -31 0 -5 7 -9
15 -9 15 0 47 -29 72 -67 21 -32 19 -107 -5 -148 -12 -19 -15 -32 -8 -29 6 2
20 18 30 34 20 34 56 41 56 11 0 -10 7 -21 15 -25 9 -3 15 0 15 8 0 22 32 80
57 102 l23 22 -21 5 c-15 4 -20 11 -15 22 5 13 2 15 -16 9 -17 -5 -20 -3 -15
10 8 20 3 20 -17 0 -9 -9 -16 -32 -16 -54 0 -40 -14 -60 -31 -43 -12 12 -1 45
12 37 17 -10 9 12 -16 46 -31 42 -31 46 0 26 24 -16 25 -16 14 8 -7 14 -25 30
-41 37 -40 16 -49 34 -12 25 28 -7 28 -6 12 10 -10 10 -39 21 -65 25 l-48 6
33 8 c24 6 30 10 20 16 -21 14 -60 9 -96 -11z"/>
<path d="M1450 1454 c29 -13 69 -57 75 -85 7 -30 -12 -76 -41 -100 -13 -10
-12 -4 6 27 25 43 23 73 -5 109 -16 19 -16 19 -5 -4 18 -35 -1 -71 -37 -71
-38 0 -61 -15 -37 -24 34 -13 0 -25 -41 -15 -29 7 -49 7 -70 -1 l-30 -12 28
-14 c15 -8 27 -17 27 -19 0 -2 -29 -2 -63 2 -62 5 -65 4 -98 -27 -23 -22 -28
-30 -14 -25 31 11 40 11 43 0 2 -5 -34 -17 -80 -27 -112 -22 -243 -75 -281
-112 -8 -9 -30 -18 -48 -21 -18 -3 -36 -9 -39 -12 -3 -3 6 -3 18 0 21 5 23 3
18 -16 -3 -12 -6 -25 -6 -29 0 -5 -11 -8 -24 -8 -33 0 -56 -10 -56 -24 0 -6 9
-12 20 -13 11 -1 18 2 15 8 -4 5 -2 9 4 9 15 0 23 -18 16 -39 -3 -12 -19 -21
-40 -25 -29 -6 -34 -11 -40 -44 -5 -32 -12 -40 -41 -51 -32 -12 -34 -14 -21
-29 8 -10 17 -33 21 -54 4 -20 17 -56 31 -81 29 -55 22 -64 -58 -82 l-52 -12
40 -11 c23 -7 70 -9 110 -6 l70 5 -63 -60 c-34 -34 -71 -61 -82 -61 -11 0 -20
-4 -20 -10 0 -5 20 -10 45 -10 32 0 64 11 120 40 42 22 80 40 85 40 21 0 8
-22 -21 -38 -33 -18 -65 -45 -89 -75 -12 -16 -8 -15 30 4 38 20 66 24 195 30
82 4 166 12 185 18 44 14 57 14 44 1 -5 -5 -34 -14 -64 -20 -32 -6 -63 -19
-75 -31 l-20 -21 22 11 c12 6 57 11 101 11 47 0 101 7 131 17 58 18 138 83
147 118 5 20 16 25 92 39 48 9 95 16 105 16 19 0 24 34 6 45 -7 5 -5 13 6 25
9 10 14 23 11 29 -9 14 23 61 40 61 8 0 17 7 20 15 15 37 51 220 47 232 -12
30 -33 -12 -54 -106 -20 -89 -24 -99 -50 -108 -22 -9 -26 -8 -22 3 3 8 0 14
-7 14 -7 0 -10 7 -6 16 3 8 2 12 -4 9 -5 -3 -6 9 -3 30 10 59 -5 39 -18 -24
-9 -47 -16 -60 -33 -65 -33 -9 -37 -7 -27 13 16 29 39 152 33 174 -4 15 -2 18
8 12 9 -6 12 -4 8 7 -5 11 2 15 27 15 24 0 31 -4 28 -16 -2 -9 3 -36 11 -61
l14 -45 2 35 c1 19 1 45 0 58 -1 12 3 22 9 22 6 0 10 5 9 12 -3 11 1 13 33 17
8 1 8 5 0 15 -10 11 -9 16 5 24 18 10 54 103 54 140 0 23 0 23 -25 -5 -21 -24
-24 -25 -25 -9 0 10 14 34 30 53 30 33 35 57 24 99 -5 20 -10 17 -58 -32 -29
-30 -61 -54 -72 -54 -11 0 -29 -6 -40 -14 -24 -17 -92 -17 -98 0 -3 7 8 38 24
71 39 77 39 128 3 171 -21 24 -38 34 -68 37 -22 3 -33 2 -25 -1z m-4 -209
c-11 -8 -25 -15 -30 -15 -6 1 0 7 14 15 32 19 40 18 16 0z m39 -64 c8 -14 -13
-24 -33 -16 -14 5 -14 7 -2 15 19 12 27 12 35 1z m217 -13 c3 -7 -1 -40 -8
-73 -17 -75 -17 -97 -3 -72 12 21 39 23 39 2 0 -8 -1 -15 -2 -15 -81 -12 -81
-12 -73 6 25 62 31 122 12 130 -20 7 -69 -14 -61 -27 4 -8 9 -8 17 0 10 10 47
16 47 7 0 -17 -15 -36 -29 -37 -10 0 -11 -2 -3 -6 21 -8 13 -53 -13 -77 -29
-27 -81 -32 -94 -8 -12 21 12 68 39 77 15 5 19 12 14 29 -11 44 104 106 118
64z m-127 -28 c-3 -5 -10 -10 -16 -10 -5 0 -9 5 -9 10 0 6 7 10 16 10 8 0 12
-4 9 -10z m-323 -30 c-23 -22 -52 -26 -69 -9 -7 7 -15 0 -26 -24 -14 -28 -24
-36 -57 -41 -25 -4 -40 -12 -40 -20 0 -11 7 -13 30 -6 16 5 34 11 39 14 5 3
12 -1 15 -10 3 -8 2 -13 -3 -10 -5 3 -11 -3 -14 -14 -3 -14 -17 -21 -46 -26
-33 -5 -41 -11 -41 -28 0 -15 3 -17 9 -8 5 9 17 11 34 6 18 -4 27 -2 27 6 0 6
4 8 10 5 6 -4 5 -17 -5 -34 -10 -21 -24 -30 -52 -35 -21 -4 -50 -9 -66 -12
-26 -5 -27 -5 -17 22 6 15 9 33 6 40 -3 7 0 14 6 16 6 2 11 25 12 50 1 25 5
44 10 40 5 -3 7 2 3 10 -7 20 11 38 38 38 11 0 33 7 48 15 15 8 25 10 22 5 -7
-12 -3 -12 19 -4 9 3 14 9 12 13 -8 12 38 10 53 -2 11 -9 13 -9 8 0 -5 7 2 13
20 16 16 2 30 5 32 6 3 0 -5 -8 -17 -19z m94 -12 c5 -16 0 -27 -19 -44 -20
-17 -23 -23 -12 -28 17 -6 20 -39 5 -66 -12 -22 -70 -43 -93 -34 -27 10 -21
59 9 83 15 12 22 21 16 21 -5 0 -13 8 -17 17 -4 13 3 26 25 45 37 34 76 37 86
6z m98 6 l48 -17 -38 -14 c-42 -15 -50 -17 -76 -15 -13 2 -18 11 -18 32 0 36
14 38 84 14z m294 -31 c-4 -22 -38 -30 -38 -10 0 14 13 24 33 26 5 1 7 -7 5
-16z m-234 -9 c22 -8 2 -34 -28 -35 -15 -1 -11 -4 12 -10 41 -12 41 -25 -3
-50 -29 -17 -35 -27 -35 -55 0 -24 -5 -34 -15 -34 -18 0 -18 4 -6 47 8 27 6
32 -11 36 -27 8 -19 40 12 47 22 5 23 7 7 13 -21 8 -14 25 17 37 27 11 31 11
50 4z m-514 -43 c0 -22 -6 -46 -14 -54 -8 -8 -13 -23 -10 -33 7 -29 -11 -79
-29 -82 -13 -3 -17 4 -17 32 0 29 -4 36 -20 36 -14 0 -22 -10 -30 -38 -6 -26
-18 -43 -35 -50 -33 -15 -40 -15 -27 1 5 6 13 26 16 42 3 17 12 59 21 94 14
59 14 83 -1 68 -3 -3 -15 -45 -25 -94 -11 -48 -22 -95 -25 -104 -5 -17 -64
-33 -64 -17 0 4 5 8 11 8 5 0 7 5 3 11 -3 6 -1 15 6 19 7 5 13 28 14 53 1 25
4 43 8 41 3 -2 9 13 13 34 5 31 12 40 37 50 17 6 35 9 39 6 5 -3 9 -2 9 3 0 4
27 9 60 10 l60 3 0 -39z m403 2 c9 -9 -12 -33 -29 -33 -17 0 -18 27 -1 33 18
8 23 8 30 0z m-13 -57 c0 -14 -29 -31 -38 -22 -2 3 -2 12 1 21 8 19 37 20 37
1z m162 -60 c27 -39 -9 -170 -55 -201 -24 -16 -100 -18 -91 -3 3 4 0 8 -5 8
-6 0 -11 16 -11 37 0 46 -8 38 -24 -24 -7 -29 -18 -48 -27 -48 -8 0 -19 -4
-26 -8 -22 -14 -85 -9 -100 8 -4 4 -2 5 5 1 14 -8 17 10 3 18 -5 4 -8 17 -6
31 1 14 -2 25 -8 25 -6 0 -2 7 9 15 10 8 15 15 10 15 -5 0 -1 10 10 22 10 12
13 18 5 13 -9 -5 -12 -3 -9 6 3 8 11 13 17 12 6 -2 11 4 11 13 0 8 4 13 9 10
5 -3 12 1 15 10 4 10 13 13 27 9 15 -5 19 -4 15 4 -12 19 19 12 41 -9 13 -12
19 -27 16 -39 -6 -25 -34 -31 -50 -11 -11 13 -16 12 -38 -13 -16 -18 -25 -40
-25 -63 0 -29 3 -34 24 -34 13 0 27 7 30 15 6 18 -23 17 -37 0 -4 -5 -6 0 -4
12 2 12 7 26 12 30 4 5 5 2 1 -4 -4 -7 -3 -13 2 -13 14 0 22 38 8 44 -6 2 -3
5 7 5 9 1 17 -3 17 -7 0 -5 14 -7 30 -4 32 5 56 34 44 54 -4 7 -3 8 4 4 7 -4
12 -1 12 8 0 11 10 16 30 16 27 0 30 3 26 24 -4 21 -1 24 32 23 21 -1 40 -6
44 -11z m-359 -163 c6 -98 5 -103 -13 -103 -11 0 -20 -5 -20 -11 0 -5 -5 -7
-10 -4 -6 4 -8 15 -5 26 9 27 -20 25 -48 -4 -12 -13 -30 -27 -41 -30 -16 -6
-17 -4 -11 15 4 13 7 31 8 40 1 9 6 14 11 11 5 -4 7 3 4 15 -4 12 -2 20 2 17
11 -7 30 27 30 53 0 11 7 23 16 26 10 4 14 14 12 24 -4 13 1 18 16 20 11 0 22
6 24 12 10 29 20 -14 25 -107z m-133 39 c0 -18 -6 -43 -12 -55 -13 -22 -14
-27 -17 -84 0 -21 -6 -33 -15 -33 -8 0 -17 -6 -19 -12 -3 -7 -6 6 -6 30 -1 35
-4 42 -21 42 -21 0 -24 -4 -34 -51 -4 -18 -14 -28 -30 -31 l-23 -5 14 61 c7
33 11 66 9 73 -3 7 -1 13 5 13 6 0 9 6 6 14 -3 8 -1 17 6 20 9 3 8 8 -3 15
-11 8 -12 11 -2 11 7 0 10 4 7 10 -3 5 0 7 8 4 8 -3 17 -2 20 3 3 4 28 8 56 8
l51 0 0 -33z m-200 -6 c0 -4 6 -6 13 -3 21 8 22 -95 1 -139 -21 -44 -46 -61
-102 -70 -23 -4 -45 -11 -48 -15 -6 -11 -24 -2 -24 12 0 6 5 7 12 3 8 -5 9 0
6 14 -4 14 -2 20 4 16 7 -4 8 5 3 26 -5 25 -4 31 5 25 9 -5 11 -4 6 4 -4 6 -3
18 4 25 6 8 8 26 4 40 -4 16 -2 26 5 26 6 0 11 9 11 19 0 16 5 18 31 14 19 -3
29 -1 25 5 -3 6 5 9 19 8 14 0 25 -5 25 -10z m778 -156 c-10 -16 -10 -24 0
-40 10 -16 10 -20 -1 -20 -7 0 -18 5 -25 12 -9 9 -12 8 -12 -5 0 -9 -4 -17
-10 -17 -5 0 -10 18 -10 40 0 30 4 40 16 40 9 0 12 -5 8 -12 -4 -7 2 -5 12 5
25 23 37 22 22 -3z m-73 -68 c-6 -15 -8 -15 -21 2 -12 17 -14 18 -14 3 0 -9
-4 -17 -10 -17 -5 0 -10 18 -10 40 0 41 15 54 27 23 5 -14 8 -12 17 8 10 23
10 23 14 -9 2 -19 1 -41 -3 -50z m-69 -8 c-7 -17 -43 -18 -49 -1 -3 8 -10 6
-21 -8 -13 -17 -17 -18 -26 -5 -5 8 -10 10 -10 3 0 -6 -14 -16 -31 -22 l-30
-10 3 42 c3 38 6 42 31 45 21 3 29 -2 36 -20 10 -23 10 -22 10 5 1 23 5 27 32
27 26 0 30 -3 26 -19 -2 -10 -1 -25 4 -32 6 -9 9 -2 9 22 0 20 3 39 8 43 8 9
16 -50 8 -70z m-196 29 c0 -5 -7 -17 -15 -27 -8 -11 -15 -28 -15 -38 0 -30
-14 -20 -27 19 -13 42 -10 51 11 34 11 -9 15 -8 20 4 5 15 26 21 26 8z m-78
-35 c7 -42 -2 -58 -33 -58 -28 0 -34 8 -29 40 6 42 55 56 62 18z m-75 -31 c2
-36 -10 -50 -21 -24 -3 9 -8 8 -15 -4 -6 -9 -31 -20 -57 -24 -26 -3 -52 -9
-59 -11 -6 -3 -17 5 -23 18 -10 22 -11 23 -11 2 -1 -17 -10 -24 -41 -32 l-40
-10 0 39 c0 41 13 54 47 46 15 -3 14 -6 -7 -15 -18 -8 -20 -11 -7 -11 9 -1 17
-5 17 -10 0 -5 -8 -12 -17 -14 -14 -4 -13 -5 4 -6 18 -1 23 6 29 34 7 37 21
46 31 18 5 -13 8 -12 16 8 10 23 11 22 17 -16 l7 -40 2 38 c0 20 4 37 9 37 4
0 17 3 30 6 13 4 22 2 22 -5 0 -6 -9 -11 -20 -11 -11 0 -20 -4 -20 -9 0 -5 10
-7 23 -4 l22 5 -23 -19 c-22 -18 -22 -19 -3 -19 15 0 22 9 27 31 13 59 58 61
61 2z"/>
<path d="M1560 1039 l-24 -10 24 -12 c14 -7 30 -9 35 -5 6 5 19 15 30 23 19
14 19 14 -10 14 -16 0 -41 -5 -55 -10z"/>
<path d="M1270 1001 c0 -6 -6 -11 -14 -11 -7 0 -19 -7 -26 -15 -11 -13 -9 -14
16 0 16 8 39 12 54 8 14 -3 21 -2 17 3 -5 5 -12 9 -15 9 -4 0 -13 4 -19 8 -8
5 -13 4 -13 -2z"/>
<path d="M1258 963 c7 -3 16 -2 19 1 4 3 -2 6 -13 5 -11 0 -14 -3 -6 -6z"/>
<path d="M902 998 c-16 -16 -15 -38 2 -38 16 0 46 26 46 41 0 13 -34 11 -48
-3z m28 -12 c0 -3 -4 -8 -10 -11 -5 -3 -10 -1 -10 4 0 6 5 11 10 11 6 0 10 -2
10 -4z"/>
<path d="M1451 834 c-25 -32 -28 -82 -4 -91 24 -9 49 28 51 76 2 49 -16 55
-47 15z m24 -34 c-3 -5 -2 -10 4 -10 6 0 8 -7 5 -15 -4 -8 -16 -14 -28 -14
-16 1 -17 2 -3 6 9 2 17 9 17 14 0 6 -4 8 -8 5 -5 -3 -9 1 -9 9 0 8 7 15 14
15 8 0 11 -4 8 -10z"/>
<path d="M1123 740 c-9 -25 -9 -30 3 -30 9 0 14 11 14 30 0 17 -1 30 -3 30 -1
0 -8 -13 -14 -30z"/>
<path d="M957 753 c-4 -3 -7 -16 -6 -27 0 -12 3 -16 5 -9 3 7 11 10 19 7 7 -3
18 4 25 15 9 19 8 21 -13 21 -13 0 -27 -3 -30 -7z"/>
<path d="M792 718 c-5 -7 -13 -34 -17 -60 -7 -44 -6 -46 14 -41 27 7 35 19 20
29 -8 5 -9 3 -4 -7 7 -12 6 -12 -6 0 -11 10 -11 15 -1 18 6 3 12 9 12 14 0 6
-4 8 -8 5 -5 -3 -9 1 -9 9 0 24 15 17 25 -12 l10 -28 7 27 c13 48 -16 78 -43
46z"/>
<path d="M1340 549 c0 -24 23 -21 28 4 2 10 -3 17 -12 17 -10 0 -16 -9 -16
-21z"/>
<path d="M1170 520 c0 -11 5 -20 11 -20 5 0 7 5 3 11 -3 6 0 15 7 20 11 7 10
9 -3 9 -11 0 -18 -8 -18 -20z"/>
<path d="M1100 519 c0 -5 5 -7 10 -4 6 3 10 8 10 11 0 2 -4 4 -10 4 -5 0 -10
-5 -10 -11z"/>
<path d="M1024 1408 l-19 -23 23 19 c21 18 27 26 19 26 -2 0 -12 -10 -23 -22z"/>
<path d="M683 1013 c9 -2 23 -2 30 0 6 3 -1 5 -18 5 -16 0 -22 -2 -12 -5z"/>
<path d="M640 995 c0 -8 2 -15 4 -15 2 0 6 7 10 15 3 8 1 15 -4 15 -6 0 -10
-7 -10 -15z"/>
<path d="M626 915 c-3 -9 -6 -22 -5 -28 0 -7 5 -1 10 12 5 13 8 26 5 28 -2 2
-6 -3 -10 -12z"/>
<path d="M607 823 c-4 -3 -7 -11 -7 -17 0 -6 5 -5 12 2 6 6 9 14 7 17 -3 3 -9
2 -12 -2z"/>
<path d="M615 463 c-82 -4 -99 -9 -134 -39 -35 -30 -42 -53 -9 -30 12 9 39 16
59 16 58 0 94 10 125 36 16 13 27 23 24 22 -3 -1 -32 -3 -65 -5z"/>
<path d="M780 334 c-19 -8 -48 -28 -65 -44 -16 -16 -46 -33 -65 -38 l-35 -10
48 -1 c58 -1 77 8 139 65 50 47 42 56 -22 28z"/>
</g>
</svg>
